Coordinates
version=1
nRows=29
nColumns=22
inDegrees=yes

Units are S.I. units (second, meters, Newtons, ...)
If the header above contains a line with 'inDegrees', this indicates whether rotational values are in degrees (yes) or radians (no).

endheader
time	pelvis_tilt	pelvis_list	pelvis_rotation	pelvis_tx	pelvis_ty	pelvis_tz	hip_flexion_r	hip_adduction_r	hip_rotation_r	knee_angle_r	ankle_angle_r	subtalar_angle_r	hip_flexion_l	hip_adduction_l	hip_rotation_l	knee_angle_l	ankle_angle_l	subtalar_angle_l	lumbar_extension	lumbar_bending	lumbar_rotation
      1.25000000	    -11.40201352	      2.19847548	    -52.94617062	     -0.91671765	      0.94280079	     -0.05016204	      1.64203524	     11.00042545	      0.59601158	    -18.89080979	     28.18408623	     -7.45076045	     44.24253617	     -7.97615379	     -0.34391725	    -30.64364793	     14.92671588	      3.78781347	     -5.22304195	      7.21606797	     11.97009503
      1.26000000	    -11.38881861	      2.14179692	    -53.06354272	     -0.91011266	      0.94177852	     -0.04462402	      1.10830760	     10.84642201	      0.74889743	    -19.06280719	     28.20189877	     -6.90417703	     44.17533663	     -7.83123779	     -0.15014086	    -31.12289701	     14.34817410	      3.48348202	     -5.17554046	      7.30042268	     11.99960321
      1.27000000	    -11.34856044	      2.09168481	    -53.15493808	     -0.90330092	      0.94088878	     -0.03901836	      0.58120247	     10.65784941	      0.88360074	    -19.27968120	     28.15845643	     -6.31008475	     44.09216023	     -7.63147084	      0.08155204	    -31.77211906	     13.67539657	      3.10694910	     -5.12676530	      7.35512269	     12.00333631
      1.28000000	    -11.27874155	      2.04659519	    -53.22052128	     -0.89628131	      0.94015917	     -0.03332886	      0.05647398	     10.43719090	      1.00768672	    -19.53855151	     28.03639354	     -5.69621967	     43.98703621	     -7.38535857	      0.32790261	    -32.56051866	     12.96389988	      2.69027045	     -5.07870681	      7.38041102	     11.97927201
      1.29000000	    -11.16669841	      1.99667853	    -53.27859846	     -0.88909019	      0.93962807	     -0.02752892	     -0.46944442	     10.17954364	      1.10475041	    -19.86082122	     27.89203341	     -4.96774857	     43.83543872	     -7.11347985	      0.54924342	    -33.44724354	     12.28386956	      2.18464116	     -5.05145256	      7.36082074	     11.97983410
      1.30000000	    -11.01450534	      1.95245637	    -53.31669838	     -0.88172481	      0.93930422	     -0.02163903	     -0.97965413	      9.88575635	      1.20187824	    -20.25471673	     27.65851842	     -4.22573774	     43.63860239	     -6.81066599	      0.73592509	    -34.37066750	     11.68559209	      1.67119041	     -5.03153935	      7.29797500	     11.94719481
      1.31000000	    -10.81767824	      1.91904859	    -53.35062596	     -0.87420145	      0.93919912	     -0.01566147	     -1.46011999	      9.54650376	      1.29279342	    -20.74292400	     27.36326816	     -3.41840269	     43.38392044	     -6.48564438	      0.85689836	    -35.27928304	     11.20064358	      1.11615542	     -5.02168207	      7.18355358	     11.92405405
      1.32000000	    -10.58616155	      1.90850880	    -53.39008156	     -0.86654485	      0.93929311	     -0.00960205	     -1.88441938	      9.16265849	      1.38657568	    -21.33844189	     27.00065848	     -2.54896125	     43.07333012	     -6.14206905	      0.91278494	    -36.12759918	     10.84392967	      0.53044186	     -5.00306044	      7.01690909	     11.91219198
      1.33000000	    -10.34118312	      1.92367400	    -53.43594972	     -0.85876753	      0.93956055	     -0.00348785	     -2.22775562	      8.74951805	      1.48022580	    -22.05204844	     26.54230093	     -1.59244674	     42.71700691	     -5.79042206	      0.90701229	    -36.88811556	     10.62381281	     -0.08622408	     -4.96125710	      6.82143240	     11.90835661
      1.34000000	    -10.07020658	      1.98169138	    -53.50065248	     -0.85088616	      0.93999314	      0.00265935	     -2.46322861	      8.27922620	      1.55482031	    -22.91580978	     26.01881362	     -0.57617222	     42.30401072	     -5.41282823	      0.82534236	    -37.53395822	     10.53837905	     -0.73059335	     -4.89135942	      6.57443599	     11.92875518
      1.35000000	     -9.80318436	      2.08831524	    -53.58562296	     -0.84293978	      0.94054552	      0.00880895	     -2.55521967	      7.77363701	      1.61486718	    -23.94238054	     25.40200017	      0.52596639	     41.85870290	     -5.01935955	      0.69488912	    -38.05929758	     10.60010513	     -1.39224409	     -4.77018553	      6.30205255	     11.97547037
      1.36000000	     -9.54771175	      2.24909462	    -53.68857942	     -0.83496467	      0.94119379	      0.01493760	     -2.48115959	      7.23544830	      1.65255314	    -25.14752377	     24.68159895	      1.69815990	     41.39287473	     -4.60930661	      0.51853129	    -38.46532671	     10.81188593	     -2.04965848	     -4.59079726	      6.00789546	     12.03958114
      1.37000000	     -9.31591681	      2.46048610	    -53.80428467	     -0.82699697	      0.94191674	      0.02101945	     -2.22586038	      6.67593036	      1.64962702	    -26.53999383	     23.82846206	      2.90072610	     40.91863289	     -4.18897406	      0.31289509	    -38.75837569	     11.16139011	     -2.66560503	     -4.35082973	      5.70439535	     12.11444966
      1.38000000	     -9.10531079	      2.72365638	    -53.92932763	     -0.81907027	      0.94270776	      0.02702527	     -1.78249228	      6.09184507	      1.60636209	    -28.12454266	     22.82833243	      4.10676766	     40.44096823	     -3.75226482	      0.09338405	    -38.94271939	     11.61437077	     -3.22409233	     -4.05633089	      5.38910220	     12.19711474
      1.39000000	     -8.91400382	      3.03359934	    -54.05353225	     -0.81120948	      0.94355514	      0.03292690	     -1.14854860	      5.48361509	      1.51192514	    -29.90854212	     21.67041521	      5.26110811	     39.96367054	     -3.30203528	     -0.14758641	    -39.02427938	     12.13791906	     -3.71767608	     -3.71872115	      5.06203504	     12.26804755
      1.40000000	     -8.72784153	      3.38695391	    -54.17657418	     -0.80343883	      0.94444912	      0.03870761	     -0.33015933	      4.83774987	      1.35750463	    -31.89488374	     20.35580765	      6.23814505	     39.48421635	     -2.83761568	     -0.43157678	    -39.01264728	     12.69581086	     -4.12388235	     -3.35507722	      4.71049770	     12.33100606
      1.41000000	     -8.54998934	      3.77342760	    -54.28931748	     -0.79576735	      0.94539069	      0.04433789	      0.65829945	      4.16709111	      1.17612431	    -34.06169794	     18.87216070	      7.07865299	     38.99717975	     -2.35375307	     -0.71264078	    -38.90239869	     13.24173751	     -4.48185720	     -2.97727190	      4.34318116	     12.39144823
      1.42000000	     -8.35147144	      4.19254008	    -54.39648991	     -0.78819941	      0.94635214	      0.04983165	      1.79977785	      3.44020244	      0.95130615	    -36.41045797	     17.28186042	      7.57876094	     38.49468096	     -1.85392052	     -1.07539183	    -38.71107226	     13.79164403	     -4.74316566	     -2.60681289	      3.93357218	     12.41483432
      1.43000000	     -8.10385552	      4.61331246	    -54.49956290	     -0.78073924	      0.94740020	      0.05518853	      3.03562377	      2.65500516	      0.71320075	    -38.90530612	     15.59613180	      7.77037965	     37.92574245	     -1.32401435	     -1.48533499	    -38.42421866	     14.26840017	     -4.89201293	     -2.29688569	      3.47048800	     12.43610437
      1.44000000	     -7.89589485	      5.09487149	    -54.57799294	     -0.77339724	      0.94828435	      0.06036283	      4.47183300	      1.86007697	      0.49027741	    -41.53950961	     13.91034839	      7.71849536	     37.42807347	     -0.78638000	     -1.90413089	    -38.08613581	     14.77738478	     -5.07841081	     -1.92445178	      3.00668639	     12.40219237
      1.45000000	     -7.59491097	      5.56238275	    -54.65479329	     -0.76612869	      0.94925603	      0.06540114	      5.93723571	      0.97881969	      0.28211492	    -44.25881730	     12.26010889	      7.46279731	     36.82812629	     -0.18640474	     -2.37174847	    -37.65916740	     15.17641842	     -5.15476480	     -1.65691543	      2.46103518	     12.36837083
      1.46000000	     -7.34076067	      6.06434134	    -54.70158141	     -0.75898380	      0.95003745	      0.07028590	      7.54595630	      0.12753954	      0.11321569	    -47.02146681	     10.66525778	      6.72126814	     36.29543764	      0.41503919	     -2.79413206	    -37.20633138	     15.61771646	     -5.26904261	     -1.34300249	      1.93478874	     12.27649361
      1.47000000	     -6.99558040	      6.54169618	    -54.74076873	     -0.75187215	      0.95085534	      0.07506651	      9.13755760	     -0.79405078	     -0.02054744	    -49.77340432	      9.26031518	      6.00379120	     35.66729413	      1.08549646	     -3.23779984	    -36.69113771	     16.00604565	     -5.33257908	     -1.13238704	      1.34021310	     12.15045981
      1.48000000	     -6.61437680	      7.00078995	    -54.76375764	     -0.74481042	      0.95162588	      0.07976593	     10.73173730	     -1.72876116	     -0.10852190	    -52.45917816	      8.09797872	      5.31020288	     34.99861332	      1.79459117	     -3.65556300	    -36.14182881	     16.39173536	     -5.39686934	     -0.97407735	      0.72468552	     11.96879175
      1.49000000	     -6.21888886	      7.41130813	    -54.75495916	     -0.73778444	      0.95237045	      0.08438640	     12.29610805	     -2.64408992	     -0.19037642	    -55.01970628	      7.18061355	      4.63836083	     34.29121647	      2.52051156	     -4.00483467	    -35.58663473	     16.73751210	     -5.47320077	     -0.88025387	      0.12739636	     11.76442110
      1.50000000	     -5.79552515	      7.76412335	    -54.71019537	     -0.73076788	      0.95312959	      0.08896596	     13.79323636	     -3.54197063	     -0.25700725	    -57.41018249	      6.59494115	      4.20220943	     33.52743060	      3.26424936	     -4.30770328	    -35.02785756	     17.04737377	     -5.52449831	     -0.86437533	     -0.45546079	     11.46643203
      1.51000000	     -5.42633753	      8.06289597	    -54.65228639	     -0.72384266	      0.95383947	      0.09356083	     15.26877034	     -4.32783337	     -0.28842189	    -59.58793757	      6.25766721	      3.52612132	     32.76093781	      3.95231475	     -4.51280583	    -34.47847796	     17.41654176	     -5.65921615	     -0.85889556	     -0.95241503	     11.17540274
      1.52000000	     -5.05908772	      8.27591469	    -54.52234576	     -0.71688809	      0.95461505	      0.09811586	     16.64233244	     -5.06429264	     -0.36877169	    -61.53101235	      6.19126586	      3.13783420	     31.94442432	      4.62847674	     -4.63878188	    -33.95874232	     17.71405273	     -5.72886917	     -0.93535741	     -1.38851060	     10.77290292
      1.53000000	     -4.74926370	      8.42282198	    -54.37942989	     -0.71002175	      0.95539287	      0.10269569	     17.97296697	     -5.67695247	     -0.42993496	    -63.22752931	      6.28565925	      2.54473112	     31.11866178	      5.22986956	     -4.68052837	    -33.46150251	     18.05230845	     -5.88448239	     -1.03019271	     -1.72862817	     10.39973790
